<svg width="24" height="33" viewBox="0 0 24 33" fill="none" xmlns="http://www.w3.org/2000/svg">
<path d="M8.4918 19.6089V27.7244C8.4918 28.8489 8.59016 29.68 8.83606 30.2178C9.08197 30.7067 9.52459 31.0978 10.1148 31.2444C10.7049 31.44 11.6885 31.5378 13.0656 31.5867V32.4667C11.4918 32.3689 9.27869 32.32 6.37705 32.32C3.77049 32.32 1.85246 32.3689 0.573769 32.4667V31.5867C1.65574 31.5378 2.44262 31.3911 2.9836 31.2444C3.47541 31.0489 3.81967 30.7067 4.01639 30.2178C4.21311 29.7289 4.31147 28.8978 4.31147 27.7244V5.33333C4.31147 4.20889 4.21311 3.37778 4.01639 2.84C3.81967 2.35111 3.47541 1.96 2.9836 1.81333C2.4918 1.66667 1.70492 1.52 0.622949 1.47111V0.542221C1.90164 0.639999 3.72131 0.688888 6.18033 0.688888L11.0984 0.639999C11.6885 0.59111 12.3279 0.59111 13.0656 0.59111C16.6066 0.59111 19.3115 1.37333 21.1803 2.98667C23.0492 4.6 23.9836 6.75111 23.9836 9.48889C23.9836 11.1511 23.5902 12.7156 22.8525 14.2311C22.1148 15.7956 20.8361 17.0667 19.0656 18.0444C17.2951 19.0711 14.9344 19.56 11.9836 19.56H8.4918V19.6089ZM9.77049 1.76444C9.27869 1.96 8.9836 2.35111 8.78688 2.88889C8.59016 3.42667 8.4918 4.25778 8.4918 5.33333V18.68H11.541C14.4918 18.68 16.5574 17.8978 17.6885 16.3333C18.8197 14.7689 19.4098 12.6178 19.4098 9.97778C19.4098 7.04444 18.8197 4.89333 17.6393 3.52444C16.459 2.15555 14.541 1.47111 11.8361 1.47111C10.9508 1.47111 10.2131 1.56889 9.77049 1.76444Z" fill="white"/>
</svg>
