<svg width="19" height="25" viewBox="0 0 19 25" fill="none" xmlns="http://www.w3.org/2000/svg">
<path d="M17.3607 1.68444C18.1476 2.36889 18.541 3.2 18.541 4.22666C18.541 5.00889 18.2951 5.69333 17.8525 6.23111C17.3607 6.76889 16.7705 7.06222 15.9836 7.06222C15.2951 7.06222 14.7541 6.86666 14.2623 6.42666C13.7705 5.98666 13.5738 5.44889 13.5738 4.71555C13.5738 3.73778 14.0656 2.90666 15.0984 2.27111C14.9016 1.97778 14.5574 1.83111 14.1639 1.83111C12.9836 1.83111 11.9016 2.27111 10.918 3.2C9.93443 4.12889 9.19673 5.25333 8.65574 6.57333C8.11476 7.89333 7.81968 9.16444 7.81968 10.3378V19.92C7.81968 21.2889 8.21313 22.2667 9.00001 22.8044C9.7869 23.3422 11.0164 23.6356 12.5902 23.6356V24.5644L11.5082 24.5156C8.40984 24.4178 6.44263 24.3689 5.60656 24.3689C4.81968 24.3689 3.04919 24.4178 0.245911 24.5644V23.6356C1.5246 23.6356 2.40985 23.3911 2.95083 22.9511C3.44263 22.4622 3.73771 21.6311 3.73771 20.4089V6.18222C3.73771 4.81333 3.49181 3.78666 2.95083 3.15111C2.45903 2.51555 1.5246 2.22222 0.245911 2.22222V1.24444C1.22952 1.34222 2.16394 1.39111 3.04919 1.39111C4.96722 1.39111 6.54099 1.19555 7.7705 0.755553V6.37778C8.31149 4.86222 9.19673 3.54222 10.3771 2.36889C11.5574 1.19555 12.8853 0.608887 14.3607 0.608887C15.6394 0.608887 16.623 0.951108 17.3607 1.68444Z" fill="white"/>
</svg>
