<svg width="19" height="26" viewBox="0 0 19 26" fill="none" xmlns="http://www.w3.org/2000/svg">
<path d="M19 19.0889C18.459 20.7511 17.4262 22.1689 15.9508 23.3422C14.4754 24.5156 12.6557 25.1022 10.541 25.1022C8.37704 25.1022 6.50819 24.6133 4.93442 23.6356C3.36065 22.6578 2.13114 21.2889 1.34425 19.5289C0.508189 17.7689 0.114746 15.7156 0.114746 13.4178C0.114746 10.7778 0.557365 8.52889 1.39343 6.62222C2.2295 4.71555 3.45901 3.2 4.9836 2.17333C6.50819 1.14666 8.32786 0.608887 10.3934 0.608887C13.0984 0.608887 15.2131 1.44 16.6885 3.05333C18.1639 4.71555 18.9016 7.20889 18.9016 10.5333H4.68852C4.59016 11.3644 4.54098 12.3422 4.54098 13.4178C4.54098 15.4222 4.88524 17.1333 5.52458 18.6C6.16393 20.0667 7.04918 21.1911 8.13114 22.0222C9.21311 22.8044 10.3443 23.1956 11.5246 23.1956C13 23.1956 14.2787 22.8533 15.4098 22.1689C16.541 21.4844 17.4754 20.3111 18.2131 18.6978L19 19.0889ZM6.45901 3.54222C5.42622 4.91111 4.78688 6.96444 4.54098 9.70222H14.4754C14.5246 7.35555 14.1803 5.4 13.4426 3.83555C12.7049 2.27111 11.6229 1.48889 10.1475 1.48889C8.7213 1.48889 7.49179 2.17333 6.45901 3.54222Z" fill="white"/>
</svg>
