<?xml version="1.0" encoding="utf-8"?><svg viewBox="0 0 24 33" xmlns="http://www.w3.org/2000/svg" xmlns:xlink="http://www.w3.org/1999/xlink"><style>:root>svg{display:none}:root>svg:target{display:block}</style><svg fill="none" viewBox="0 0 24 33" id="p_vector" xmlns="http://www.w3.org/2000/svg"><path d="M19.705 1.929c1.279.88 2.311 2.151 3 3.862.738 1.662 1.082 3.716 1.082 6.062 0 2.298-.394 4.498-1.131 6.503-.738 2.004-1.87 3.666-3.443 4.937-1.574 1.271-3.492 1.907-5.852 1.907a7.416 7.416 0 01-3.148-.684c-.934-.44-1.672-1.027-2.164-1.76v5.768c0 1.223.344 2.103 1.082 2.543.738.489 1.82.684 3.295.684v.929l-1.033-.049c-2.803-.098-4.672-.147-5.508-.147-.737 0-2.36.05-4.918.196v-.929c1.131 0 1.918-.195 2.36-.587.443-.39.64-1.124.64-2.2V6.182c0-1.369-.246-2.395-.787-3.03-.491-.636-1.426-.93-2.705-.93v-.978a26.92 26.92 0 002.804.147c1.918 0 3.491-.195 4.721-.635v4.79c.689-1.564 1.623-2.786 2.902-3.617 1.278-.88 2.705-1.271 4.377-1.271 1.721-.05 3.147.39 4.426 1.27zM19.41 12.44c0-6.991-1.77-10.462-5.262-10.462-1.377 0-2.607.489-3.689 1.466-1.082.978-1.869 2.396-2.36 4.205V21.19c.442.88 1.032 1.565 1.868 2.102.836.538 1.82.783 2.951.783 4.328.048 6.492-3.863 6.492-11.636z" fill="#fff"/></svg><svg fill="none" viewBox="0 0 24 33" id="vector_P" xmlns="http://www.w3.org/2000/svg"><path d="M8.492 19.609v8.115c0 1.125.098 1.956.344 2.494.246.489.689.88 1.279 1.026.59.196 1.573.294 2.95.343v.88c-1.573-.098-3.786-.147-6.688-.147-2.607 0-4.525.049-5.803.147v-.88c1.082-.05 1.869-.196 2.41-.343a1.777 1.777 0 001.032-1.026c.197-.49.295-1.32.295-2.494V5.334c0-1.125-.098-1.956-.295-2.494-.196-.489-.54-.88-1.032-1.027-.492-.146-1.28-.293-2.361-.342V.542C1.902.64 3.72.69 6.18.69L11.098.64c.59-.049 1.23-.049 1.968-.049 3.54 0 6.245.782 8.114 2.396 1.87 1.613 2.804 3.764 2.804 6.502 0 1.662-.394 3.227-1.132 4.742-.737 1.565-2.016 2.836-3.786 3.813-1.77 1.027-4.132 1.516-7.082 1.516H8.492v.049zM9.77 1.764c-.491.196-.786.587-.983 1.125-.197.538-.295 1.369-.295 2.444V18.68h3.049c2.95 0 5.016-.782 6.148-2.347 1.13-1.564 1.72-3.715 1.72-6.355 0-2.934-.59-5.085-1.77-6.454-1.18-1.368-3.098-2.053-5.803-2.053-.885 0-1.623.098-2.066.293z" fill="#fff"/></svg><svg fill="none" viewBox="0 0 22 25" id="vector_a" xmlns="http://www.w3.org/2000/svg"><path d="M2.115 23.391c-.935-.929-1.377-2.249-1.377-3.96 0-1.369.393-2.444 1.13-3.324a7.76 7.76 0 012.657-2.054 32.413 32.413 0 014.032-1.613c1.672-.587 2.951-1.076 3.787-1.564.836-.49 1.23-1.125 1.23-1.956V6.133c0-1.76-.394-2.933-1.131-3.569-.738-.635-1.77-.977-3.099-.977-2.114 0-3.64.537-4.475 1.613.59.147 1.131.489 1.524.929.394.489.59 1.075.59 1.809 0 .733-.245 1.369-.737 1.76-.492.44-1.082.635-1.869.635-.836 0-1.475-.244-1.918-.782-.443-.538-.64-1.173-.64-1.907 0-.733.197-1.32.542-1.808.344-.49.885-.978 1.573-1.467.738-.489 1.673-.929 2.755-1.271 1.13-.342 2.36-.49 3.688-.49 2.36 0 4.131.539 5.36 1.663.738.685 1.28 1.516 1.525 2.493.246.978.394 2.25.394 3.863V21.19c0 .733.098 1.271.295 1.613.197.343.59.49 1.082.49.344 0 .688-.098 1.033-.245.295-.147.639-.391 1.032-.685l.492.783c-.787.586-1.475 1.026-2.016 1.27-.541.245-1.279.392-2.115.392-1.475 0-2.459-.342-3.05-1.076-.59-.733-.884-1.71-.884-2.933-.886 1.516-1.968 2.542-3.148 3.129-1.18.587-2.508.88-3.984.88-1.967.049-3.344-.44-4.278-1.418zm11.36-3.813v-8.85c-.245.44-.639.783-1.13 1.076-.493.294-1.23.636-2.214 1.076-1.131.489-2.065.929-2.803 1.369a6.209 6.209 0 00-1.82 1.76c-.492.733-.787 1.711-.787 2.884 0 1.37.345 2.396.984 3.08C6.393 22.658 7.229 23 8.36 23c2.016.049 3.688-1.124 5.114-3.422z" fill="#fff"/></svg><svg fill="none" viewBox="0 0 19 26" id="vector_e" xmlns="http://www.w3.org/2000/svg"><path d="M19 19.089c-.541 1.662-1.574 3.08-3.05 4.253-1.475 1.174-3.294 1.76-5.409 1.76-2.164 0-4.033-.489-5.607-1.466a9.164 9.164 0 01-3.59-4.107c-.836-1.76-1.23-3.813-1.23-6.111 0-2.64.443-4.89 1.28-6.796.835-1.906 2.065-3.422 3.59-4.449C6.508 1.147 8.328.61 10.394.61c2.704 0 4.82.831 6.295 2.444 1.475 1.663 2.213 4.156 2.213 7.48H4.689a25.039 25.039 0 00-.148 2.885c0 2.004.344 3.715.984 5.182.639 1.467 1.524 2.591 2.606 3.422 1.082.782 2.213 1.174 3.394 1.174 1.475 0 2.754-.343 3.885-1.027 1.131-.685 2.065-1.858 2.803-3.471l.787.39zM6.459 3.542c-1.033 1.37-1.672 3.422-1.918 6.16h9.934c.05-2.346-.295-4.302-1.032-5.866-.738-1.565-1.82-2.347-3.295-2.347-1.427 0-2.656.684-3.689 2.053z" fill="#fff"/></svg><svg fill="none" viewBox="0 0 19 25" id="vector_r" xmlns="http://www.w3.org/2000/svg"><path d="M17.36 1.684c.788.685 1.181 1.516 1.181 2.543 0 .782-.246 1.466-.689 2.004-.491.538-1.082.831-1.868.831-.689 0-1.23-.195-1.722-.635s-.688-.978-.688-1.711c0-.978.492-1.81 1.524-2.445-.196-.293-.54-.44-.934-.44-1.18 0-2.262.44-3.246 1.369S9.197 5.253 8.656 6.573c-.541 1.32-.836 2.591-.836 3.765v9.582c0 1.369.393 2.347 1.18 2.884.787.538 2.016.832 3.59.832v.928l-1.082-.048c-3.098-.098-5.065-.147-5.901-.147-.787 0-2.558.049-5.361.195v-.928c1.279 0 2.164-.245 2.705-.685.492-.489.787-1.32.787-2.542V6.182c0-1.369-.246-2.395-.787-3.03-.492-.636-1.426-.93-2.705-.93v-.978a28.39 28.39 0 002.803.147c1.918 0 3.492-.195 4.722-.635v5.622c.54-1.516 1.426-2.836 2.606-4.01 1.18-1.172 2.508-1.76 3.984-1.76 1.278 0 2.262.343 3 1.076z" fill="#fff"/></svg></svg>