<svg width="24" height="33" viewBox="0 0 24 33" fill="none" xmlns="http://www.w3.org/2000/svg">
<path d="M19.7049 1.92889C20.9836 2.80889 22.0164 4.08 22.7049 5.79111C23.4426 7.45333 23.7869 9.50667 23.7869 11.8533C23.7869 14.1511 23.3934 16.3511 22.6557 18.3556C21.918 20.36 20.7869 22.0222 19.2131 23.2933C17.6393 24.5644 15.7213 25.2 13.3607 25.2C12.2295 25.2 11.1475 24.9556 10.2131 24.5156C9.27868 24.0756 8.54098 23.4889 8.04917 22.7556V28.5244C8.04917 29.7467 8.39343 30.6267 9.13114 31.0667C9.86884 31.5556 10.9508 31.7511 12.4262 31.7511V32.68L11.3934 32.6311C8.59016 32.5333 6.7213 32.4844 5.88524 32.4844C5.14753 32.4844 3.52458 32.5333 0.967206 32.68V31.7511C2.09835 31.7511 2.88524 31.5556 3.32786 31.1644C3.77049 30.7733 3.96721 30.04 3.96721 28.9644V6.18222C3.96721 4.81333 3.7213 3.78667 3.18032 3.15111C2.68852 2.51556 1.75409 2.22222 0.475403 2.22222V1.24445C1.40983 1.34222 2.34426 1.39111 3.27868 1.39111C5.19672 1.39111 6.77049 1.19556 7.99999 0.755557V5.54667C8.68852 3.98222 9.62294 2.76 10.9016 1.92889C12.1803 1.04889 13.6065 0.657779 15.2787 0.657779C17 0.60889 18.4262 1.04889 19.7049 1.92889ZM19.4098 12.44C19.4098 5.44889 17.6393 1.97778 14.1475 1.97778C12.7705 1.97778 11.541 2.46667 10.459 3.44445C9.37704 4.42222 8.59016 5.84 8.09835 7.64889V21.1911C8.54098 22.0711 9.13114 22.7556 9.96721 23.2933C10.8033 23.8311 11.7869 24.0756 12.918 24.0756C17.2459 24.1244 19.4098 20.2133 19.4098 12.44Z" fill="white"/>
</svg>
