<svg width="22" height="25" viewBox="0 0 22 25" fill="none" xmlns="http://www.w3.org/2000/svg">
<path d="M2.11475 23.3911C1.18032 22.4622 0.737701 21.1422 0.737701 19.4311C0.737701 18.0622 1.13114 16.9867 1.86885 16.1067C2.60655 15.2267 3.4918 14.5422 4.52459 14.0533C5.55737 13.5644 6.88524 12.9778 8.55737 12.44C10.2295 11.8533 11.5082 11.3644 12.3443 10.8756C13.1803 10.3867 13.5738 9.75111 13.5738 8.92V6.13333C13.5738 4.37333 13.1803 3.2 12.4426 2.56444C11.7049 1.92889 10.6721 1.58666 9.34426 1.58666C7.2295 1.58666 5.70492 2.12444 4.86885 3.2C5.45901 3.34666 6 3.68889 6.39344 4.12889C6.78688 4.61778 6.9836 5.20444 6.9836 5.93777C6.9836 6.67111 6.7377 7.30666 6.2459 7.69778C5.75409 8.13778 5.16393 8.33333 4.37704 8.33333C3.54098 8.33333 2.90164 8.08889 2.45901 7.55111C2.01639 7.01333 1.81967 6.37778 1.81967 5.64444C1.81967 4.91111 2.01639 4.32444 2.36065 3.83555C2.70491 3.34666 3.2459 2.85777 3.93442 2.36889C4.67213 1.88 5.60655 1.44 6.68852 1.09778C7.81967 0.755553 9.04918 0.608887 10.377 0.608887C12.7377 0.608887 14.5082 1.14666 15.7377 2.27111C16.4754 2.95555 17.0164 3.78666 17.2623 4.76444C17.5082 5.74222 17.6557 7.01333 17.6557 8.62666V21.1911C17.6557 21.9244 17.7541 22.4622 17.9508 22.8044C18.1475 23.1467 18.541 23.2933 19.0328 23.2933C19.377 23.2933 19.7213 23.1956 20.0656 23.0489C20.3606 22.9022 20.7049 22.6578 21.0984 22.3644L21.5902 23.1467C20.8033 23.7333 20.1147 24.1733 19.5738 24.4178C19.0328 24.6622 18.2951 24.8089 17.459 24.8089C15.9836 24.8089 15 24.4667 14.4098 23.7333C13.8197 23 13.5246 22.0222 13.5246 20.8C12.6393 22.3156 11.5574 23.3422 10.377 23.9289C9.19672 24.5156 7.86885 24.8089 6.39344 24.8089C4.42623 24.8578 3.04918 24.3689 2.11475 23.3911ZM13.4754 19.5778V10.7289C13.2295 11.1689 12.8361 11.5111 12.3443 11.8044C11.8525 12.0978 11.1147 12.44 10.1311 12.88C9 13.3689 8.06557 13.8089 7.32787 14.2489C6.63934 14.6889 5.99999 15.2756 5.50819 16.0089C5.01639 16.7422 4.72131 17.72 4.72131 18.8933C4.72131 20.2622 5.06557 21.2889 5.70491 21.9733C6.39344 22.6578 7.2295 23 8.36065 23C10.377 23.0489 12.0492 21.8756 13.4754 19.5778Z" fill="white"/>
</svg>
